# xmcd CD database file
#
# Track frame offsets:
#	150
#	14369
#	31685
#	47560
#	65528
#	79802
#	96334
#	121575
#
# Disc length: 1965 seconds
#
# Revision: 1
# Processed by: cddbd v1.4PL0 Copyright (c) Steve Scherf et al.
# Submitted via: CDValet v3.40 - Copyright (c) 1996 - 1998 Greg Leichner
#
DISCID=5807ab08
DTITLE=Grandview - Grandview
DYEAR=1900
DGENRE=
TTITLE0=Doctor Do Very Little
TTITLE1=High On Life
TTITLE2=Roll Over
TTITLE3=Canvas Boy
TTITLE4=Blue Eyes
TTITLE5=By Your Side
TTITLE6=Diamond Eyes
TTITLE7=Hand In Hand
EXTD=
EXTT0=
EXTT1=
EXTT2=
EXTT3=
EXTT4=
EXTT5=
EXTT6=
EXTT7=
PLAYORDER=
